<?xml version="1.0" encoding="UTF-8" standalone="no"?>
<!-- Created with Inkscape (http://www.inkscape.org/) -->

<svg
   xmlns:dc="http://purl.org/dc/elements/1.1/"
   xmlns:cc="http://creativecommons.org/ns#"
   xmlns:rdf="http://www.w3.org/1999/02/22-rdf-syntax-ns#"
   xmlns:svg="http://www.w3.org/2000/svg"
   xmlns="http://www.w3.org/2000/svg"
   xmlns:sodipodi="http://sodipodi.sourceforge.net/DTD/sodipodi-0.dtd"
   xmlns:inkscape="http://www.inkscape.org/namespaces/inkscape"
   width="3726.676"
   height="2537.9524"
   id="svg2"
   version="1.1"
   inkscape:version="0.91 r13725"
   sodipodi:docname="VirtualSensorNetwork.svg">
  <defs
     id="defs4">
    <marker
       inkscape:stockid="Arrow2Lend"
       orient="auto"
       refY="0"
       refX="0"
       id="Arrow2Lend"
       style="overflow:visible">
      <path
         id="path3979"
         style="fill-rule:evenodd;stroke-width:0.625;stroke-linejoin:round"
         d="M 8.7185878,4.0337352 -2.2072895,0.01601326 8.7185884,-4.0017078 c -1.7454984,2.3720609 -1.7354408,5.6174519 -6e-7,8.035443 z"
         transform="matrix(-1.1,0,0,-1.1,-1.1,0)"
         inkscape:connector-curvature="0" />
    </marker>
    <marker
       inkscape:stockid="Arrow1Mend"
       orient="auto"
       refY="0"
       refX="0"
       id="Arrow1Mend"
       style="overflow:visible">
      <path
         id="path3967"
         d="M 0,0 5,-5 -12.5,0 5,5 0,0 z"
         style="fill-rule:evenodd;stroke:#000000;stroke-width:1pt"
         transform="matrix(-0.4,0,0,-0.4,-4,0)"
         inkscape:connector-curvature="0" />
    </marker>
    <marker
       inkscape:stockid="Arrow1Lend"
       orient="auto"
       refY="0"
       refX="0"
       id="Arrow1Lend"
       style="overflow:visible">
      <path
         id="path3961"
         d="M 0,0 5,-5 -12.5,0 5,5 0,0 z"
         style="fill-rule:evenodd;stroke:#000000;stroke-width:1pt"
         transform="matrix(-0.8,0,0,-0.8,-10,0)"
         inkscape:connector-curvature="0" />
    </marker>
    <marker
       inkscape:stockid="Arrow2Lend"
       orient="auto"
       refY="0"
       refX="0"
       id="Arrow2Lend-2"
       style="overflow:visible">
      <path
         inkscape:connector-curvature="0"
         id="path3979-3"
         style="fill-rule:evenodd;stroke-width:0.625;stroke-linejoin:round"
         d="M 8.7185878,4.0337352 -2.2072895,0.01601326 8.7185884,-4.0017078 c -1.7454984,2.3720609 -1.7354408,5.6174519 -6e-7,8.035443 z"
         transform="matrix(-1.1,0,0,-1.1,-1.1,0)" />
    </marker>
    <marker
       inkscape:stockid="Arrow2Lend"
       orient="auto"
       refY="0"
       refX="0"
       id="Arrow2Lend-8"
       style="overflow:visible">
      <path
         inkscape:connector-curvature="0"
         id="path3979-6"
         style="fill-rule:evenodd;stroke-width:0.625;stroke-linejoin:round"
         d="M 8.7185878,4.0337352 -2.2072895,0.01601326 8.7185884,-4.0017078 c -1.7454984,2.3720609 -1.7354408,5.6174519 -6e-7,8.035443 z"
         transform="matrix(-1.1,0,0,-1.1,-1.1,0)" />
    </marker>
    <marker
       inkscape:stockid="Arrow2Lend"
       orient="auto"
       refY="0"
       refX="0"
       id="Arrow2Lend-20"
       style="overflow:visible">
      <path
         inkscape:connector-curvature="0"
         id="path3979-7"
         style="fill-rule:evenodd;stroke-width:0.625;stroke-linejoin:round"
         d="M 8.7185878,4.0337352 -2.2072895,0.01601326 8.7185884,-4.0017078 c -1.7454984,2.3720609 -1.7354408,5.6174519 -6e-7,8.035443 z"
         transform="matrix(-1.1,0,0,-1.1,-1.1,0)" />
    </marker>
    <marker
       inkscape:stockid="Arrow2Lend"
       orient="auto"
       refY="0"
       refX="0"
       id="Arrow2Lend-7"
       style="overflow:visible">
      <path
         inkscape:connector-curvature="0"
         id="path3979-67"
         style="fill-rule:evenodd;stroke-width:0.625;stroke-linejoin:round"
         d="M 8.7185878,4.0337352 -2.2072895,0.01601326 8.7185884,-4.0017078 c -1.7454984,2.3720609 -1.7354408,5.6174519 -6e-7,8.035443 z"
         transform="matrix(-1.1,0,0,-1.1,-1.1,0)" />
    </marker>
    <marker
       inkscape:stockid="Arrow2Lend"
       orient="auto"
       refY="0"
       refX="0"
       id="Arrow2Lend-1"
       style="overflow:visible">
      <path
         inkscape:connector-curvature="0"
         id="path3979-5"
         style="fill-rule:evenodd;stroke-width:0.625;stroke-linejoin:round"
         d="M 8.7185878,4.0337352 -2.2072895,0.01601326 8.7185884,-4.0017078 c -1.7454984,2.3720609 -1.7354408,5.6174519 -6e-7,8.035443 z"
         transform="matrix(-1.1,0,0,-1.1,-1.1,0)" />
    </marker>
    <marker
       inkscape:stockid="Arrow2Lend"
       orient="auto"
       refY="0"
       refX="0"
       id="Arrow2Lend-6"
       style="overflow:visible">
      <path
         inkscape:connector-curvature="0"
         id="path3979-39"
         style="fill-rule:evenodd;stroke-width:0.625;stroke-linejoin:round"
         d="M 8.7185878,4.0337352 -2.2072895,0.01601326 8.7185884,-4.0017078 c -1.7454984,2.3720609 -1.7354408,5.6174519 -6e-7,8.035443 z"
         transform="matrix(-1.1,0,0,-1.1,-1.1,0)" />
    </marker>
    <marker
       inkscape:stockid="Arrow2Lend"
       orient="auto"
       refY="0"
       refX="0"
       id="Arrow2Lend-72"
       style="overflow:visible">
      <path
         inkscape:connector-curvature="0"
         id="path3979-58"
         style="fill-rule:evenodd;stroke-width:0.625;stroke-linejoin:round"
         d="M 8.7185878,4.0337352 -2.2072895,0.01601326 8.7185884,-4.0017078 c -1.7454984,2.3720609 -1.7354408,5.6174519 -6e-7,8.035443 z"
         transform="matrix(-1.1,0,0,-1.1,-1.1,0)" />
    </marker>
    <marker
       inkscape:stockid="Arrow2Lend"
       orient="auto"
       refY="0"
       refX="0"
       id="Arrow2Lend-3"
       style="overflow:visible">
      <path
         inkscape:connector-curvature="0"
         id="path3979-30"
         style="fill-rule:evenodd;stroke-width:0.625;stroke-linejoin:round"
         d="M 8.7185878,4.0337352 -2.2072895,0.01601326 8.7185884,-4.0017078 c -1.7454984,2.3720609 -1.7354408,5.6174519 -6e-7,8.035443 z"
         transform="matrix(-1.1,0,0,-1.1,-1.1,0)" />
    </marker>
  </defs>
  <sodipodi:namedview
     id="base"
     pagecolor="#ffffff"
     bordercolor="#666666"
     borderopacity="1.0"
     inkscape:pageopacity="0.0"
     inkscape:pageshadow="2"
     inkscape:zoom="0.25"
     inkscape:cx="2159.8628"
     inkscape:cy="1533.585"
     inkscape:document-units="px"
     inkscape:current-layer="layer1"
     showgrid="false"
     fit-margin-top="1"
     fit-margin-left="1"
     fit-margin-right="1"
     fit-margin-bottom="1"
     inkscape:window-width="1600"
     inkscape:window-height="834"
     inkscape:window-x="0"
     inkscape:window-y="27"
     inkscape:window-maximized="1" />
  <metadata
     id="metadata7">
    <rdf:RDF>
      <cc:Work
         rdf:about="">
        <dc:format>image/svg+xml</dc:format>
        <dc:type
           rdf:resource="http://purl.org/dc/dcmitype/StillImage" />
        <dc:title />
      </cc:Work>
    </rdf:RDF>
  </metadata>
  <g
     inkscape:label="Layer 1"
     inkscape:groupmode="layer"
     id="layer1"
     transform="translate(1236.1806,881.3008)">
    <path
       sodipodi:type="arc"
       style="fill:#000000;fill-opacity:1;fill-rule:evenodd;stroke:#000000;stroke-width:5;stroke-linecap:butt;stroke-linejoin:miter;stroke-miterlimit:4;stroke-opacity:1;stroke-dasharray:none"
       id="path2985"
       sodipodi:cx="-448.50772"
       sodipodi:cy="209.89496"
       sodipodi:rx="62.629459"
       sodipodi:ry="62.629459"
       d="m -385.87826,209.89496 a 62.629459,62.629459 0 0 1 -62.62946,62.62946 62.629459,62.629459 0 0 1 -62.62946,-62.62946 62.629459,62.629459 0 0 1 62.62946,-62.62946 62.629459,62.629459 0 0 1 62.62946,62.62946 z"
       transform="translate(-129.29953,563.66512)" />
    <path
       sodipodi:type="arc"
       style="fill:#ffffff;fill-opacity:1;fill-rule:evenodd;stroke:#000000;stroke-width:5;stroke-linecap:butt;stroke-linejoin:miter;stroke-miterlimit:4;stroke-opacity:1;stroke-dasharray:none"
       id="path2985-3"
       sodipodi:cx="-448.50772"
       sodipodi:cy="209.89496"
       sodipodi:rx="62.629459"
       sodipodi:ry="62.629459"
       d="m -385.87826,209.89496 a 62.629459,62.629459 0 0 1 -62.62946,62.62946 62.629459,62.629459 0 0 1 -62.62946,-62.62946 62.629459,62.629459 0 0 1 62.62946,-62.62946 62.629459,62.629459 0 0 1 62.62946,62.62946 z"
       transform="translate(282.8427,268.70058)" />
    <path
       sodipodi:type="arc"
       style="fill:#000000;fill-opacity:1;fill-rule:evenodd;stroke:#000000;stroke-width:5;stroke-linecap:butt;stroke-linejoin:miter;stroke-miterlimit:4;stroke-opacity:1;stroke-dasharray:none"
       id="path2985-8"
       sodipodi:cx="-448.50772"
       sodipodi:cy="209.89496"
       sodipodi:rx="62.629459"
       sodipodi:ry="62.629459"
       d="m -385.87826,209.89496 a 62.629459,62.629459 0 0 1 -62.62946,62.62946 62.629459,62.629459 0 0 1 -62.62946,-62.62946 62.629459,62.629459 0 0 1 62.62946,-62.62946 62.629459,62.629459 0 0 1 62.62946,62.62946 z"
       transform="translate(-408.10164,62.62946)" />
    <path
       sodipodi:type="arc"
       style="fill:#000000;fill-opacity:1;fill-rule:evenodd;stroke:#000000;stroke-width:5;stroke-linecap:butt;stroke-linejoin:miter;stroke-miterlimit:4;stroke-opacity:1;stroke-dasharray:none"
       id="path2985-9"
       sodipodi:cx="-448.50772"
       sodipodi:cy="209.89496"
       sodipodi:rx="62.629459"
       sodipodi:ry="62.629459"
       d="m -385.87826,209.89496 a 62.629459,62.629459 0 0 1 -62.62946,62.62946 62.629459,62.629459 0 0 1 -62.62946,-62.62946 62.629459,62.629459 0 0 1 62.62946,-62.62946 62.629459,62.629459 0 0 1 62.62946,62.62946 z"
       transform="translate(238.39599,-345.47217)" />
    <path
       sodipodi:type="arc"
       style="fill:#000000;fill-opacity:1;fill-rule:evenodd;stroke:#000000;stroke-width:5;stroke-linecap:butt;stroke-linejoin:miter;stroke-miterlimit:4;stroke-opacity:1;stroke-dasharray:none"
       id="path2985-5"
       sodipodi:cx="-448.50772"
       sodipodi:cy="209.89496"
       sodipodi:rx="62.629459"
       sodipodi:ry="62.629459"
       d="m -385.87826,209.89496 a 62.629459,62.629459 0 0 1 -62.62946,62.62946 62.629459,62.629459 0 0 1 -62.62946,-62.62946 62.629459,62.629459 0 0 1 62.62946,-62.62946 62.629459,62.629459 0 0 1 62.62946,62.62946 z"
       transform="translate(-460.62957,-587.90878)" />
    <path
       sodipodi:type="arc"
       style="fill:#000000;fill-opacity:1;fill-rule:evenodd;stroke:#000000;stroke-width:5;stroke-linecap:butt;stroke-linejoin:miter;stroke-miterlimit:4;stroke-opacity:1;stroke-dasharray:none"
       id="path2985-7"
       sodipodi:cx="-448.50772"
       sodipodi:cy="209.89496"
       sodipodi:rx="62.629459"
       sodipodi:ry="62.629459"
       d="m -385.87826,209.89496 a 62.629459,62.629459 0 0 1 -62.62946,62.62946 62.629459,62.629459 0 0 1 -62.62946,-62.62946 62.629459,62.629459 0 0 1 62.62946,-62.62946 62.629459,62.629459 0 0 1 62.62946,62.62946 z"
       transform="translate(1862.7213,410.12194)" />
    <path
       sodipodi:type="arc"
       style="fill:#000000;fill-opacity:1;fill-rule:evenodd;stroke:#000000;stroke-width:5;stroke-linecap:butt;stroke-linejoin:miter;stroke-miterlimit:4;stroke-opacity:1;stroke-dasharray:none"
       id="path2985-32"
       sodipodi:cx="-448.50772"
       sodipodi:cy="209.89496"
       sodipodi:rx="62.629459"
       sodipodi:ry="62.629459"
       d="m -385.87826,209.89496 a 62.629459,62.629459 0 0 1 -62.62946,62.62946 62.629459,62.629459 0 0 1 -62.62946,-62.62946 62.629459,62.629459 0 0 1 62.62946,-62.62946 62.629459,62.629459 0 0 1 62.62946,62.62946 z"
       transform="translate(2088.9955,-42.426405)" />
    <path
       sodipodi:type="arc"
       style="fill:#000000;fill-opacity:1;fill-rule:evenodd;stroke:#000000;stroke-width:5;stroke-linecap:butt;stroke-linejoin:miter;stroke-miterlimit:4;stroke-opacity:1;stroke-dasharray:none"
       id="path2985-58"
       sodipodi:cx="-448.50772"
       sodipodi:cy="209.89496"
       sodipodi:rx="62.629459"
       sodipodi:ry="62.629459"
       d="m -385.87826,209.89496 a 62.629459,62.629459 0 0 1 -62.62946,62.62946 62.629459,62.629459 0 0 1 -62.62946,-62.62946 62.629459,62.629459 0 0 1 62.62946,-62.62946 62.629459,62.629459 0 0 1 62.62946,62.62946 z"
       transform="translate(2557.7062,-422.24376)" />
    <path
       sodipodi:type="arc"
       style="fill:#000000;fill-opacity:1;fill-rule:evenodd;stroke:#000000;stroke-width:5;stroke-linecap:butt;stroke-linejoin:miter;stroke-miterlimit:4;stroke-opacity:1;stroke-dasharray:none"
       id="path2985-0"
       sodipodi:cx="-448.50772"
       sodipodi:cy="209.89496"
       sodipodi:rx="62.629459"
       sodipodi:ry="62.629459"
       d="m -385.87826,209.89496 a 62.629459,62.629459 0 0 1 -62.62946,62.62946 62.629459,62.629459 0 0 1 -62.62946,-62.62946 62.629459,62.629459 0 0 1 62.62946,-62.62946 62.629459,62.629459 0 0 1 62.62946,62.62946 z"
       transform="translate(2872.8738,195.9696)" />
    <path
       sodipodi:type="arc"
       style="fill:#808080;fill-opacity:1;fill-rule:evenodd;stroke:#000000;stroke-width:5;stroke-linecap:butt;stroke-linejoin:miter;stroke-miterlimit:4;stroke-opacity:1;stroke-dasharray:none"
       id="path2985-3-2"
       sodipodi:cx="-448.50772"
       sodipodi:cy="209.89496"
       sodipodi:rx="62.629459"
       sodipodi:ry="62.629459"
       d="m -385.87826,209.89496 a 62.629459,62.629459 0 0 1 -62.62946,62.62946 62.629459,62.629459 0 0 1 -62.62946,-62.62946 62.629459,62.629459 0 0 1 62.62946,-62.62946 62.629459,62.629459 0 0 1 62.62946,62.62946 z"
       transform="translate(1014.1931,272.74119)" />
    <path
       sodipodi:type="arc"
       style="fill:#808080;fill-opacity:1;fill-rule:evenodd;stroke:#000000;stroke-width:5;stroke-linecap:butt;stroke-linejoin:miter;stroke-miterlimit:4;stroke-opacity:1;stroke-dasharray:none"
       id="path2985-3-2-6"
       sodipodi:cx="-448.50772"
       sodipodi:cy="209.89496"
       sodipodi:rx="62.629459"
       sodipodi:ry="62.629459"
       d="m -385.87826,209.89496 a 62.629459,62.629459 0 0 1 -62.62946,62.62946 62.629459,62.629459 0 0 1 -62.62946,-62.62946 62.629459,62.629459 0 0 1 62.62946,-62.62946 62.629459,62.629459 0 0 1 62.62946,62.62946 z"
       transform="translate(925.29972,-288.90363)" />
    <path
       sodipodi:type="arc"
       style="fill:#808080;fill-opacity:1;fill-rule:evenodd;stroke:#000000;stroke-width:5;stroke-linecap:butt;stroke-linejoin:miter;stroke-miterlimit:4;stroke-opacity:1;stroke-dasharray:none"
       id="path2985-3-2-5"
       sodipodi:cx="-448.50772"
       sodipodi:cy="209.89496"
       sodipodi:rx="62.629459"
       sodipodi:ry="62.629459"
       d="m -385.87826,209.89496 a 62.629459,62.629459 0 0 1 -62.62946,62.62946 62.629459,62.629459 0 0 1 -62.62946,-62.62946 62.629459,62.629459 0 0 1 62.62946,-62.62946 62.629459,62.629459 0 0 1 62.62946,62.62946 z"
       transform="translate(1628.3659,-721.24891)" />
    <path
       sodipodi:type="arc"
       style="fill:#808080;fill-opacity:1;fill-rule:evenodd;stroke:#000000;stroke-width:5;stroke-linecap:butt;stroke-linejoin:miter;stroke-miterlimit:4;stroke-opacity:1;stroke-dasharray:none"
       id="path2985-3-2-63"
       sodipodi:cx="-448.50772"
       sodipodi:cy="209.89496"
       sodipodi:rx="62.629459"
       sodipodi:ry="62.629459"
       d="m -385.87826,209.89496 a 62.629459,62.629459 0 0 1 -62.62946,62.62946 62.629459,62.629459 0 0 1 -62.62946,-62.62946 62.629459,62.629459 0 0 1 62.62946,-62.62946 62.629459,62.629459 0 0 1 62.62946,62.62946 z"
       transform="translate(220.87321,-1025.0663)" />
    <path
       sodipodi:type="arc"
       style="fill:#808080;fill-opacity:1;fill-rule:evenodd;stroke:#000000;stroke-width:5;stroke-linecap:butt;stroke-linejoin:miter;stroke-miterlimit:4;stroke-opacity:1;stroke-dasharray:none"
       id="path2985-3-2-2"
       sodipodi:cx="-448.50772"
       sodipodi:cy="209.89496"
       sodipodi:rx="62.629459"
       sodipodi:ry="62.629459"
       d="m -385.87826,209.89496 a 62.629459,62.629459 0 0 1 -62.62946,62.62946 62.629459,62.629459 0 0 1 -62.62946,-62.62946 62.629459,62.629459 0 0 1 62.62946,-62.62946 62.629459,62.629459 0 0 1 62.62946,62.62946 z"
       transform="translate(925.29972,-733.37074)" />
    <path
       sodipodi:type="arc"
       style="fill:#808080;fill-opacity:1;fill-rule:evenodd;stroke:#000000;stroke-width:5;stroke-linecap:butt;stroke-linejoin:miter;stroke-miterlimit:4;stroke-opacity:1;stroke-dasharray:none"
       id="path2985-3-2-0"
       sodipodi:cx="-448.50772"
       sodipodi:cy="209.89496"
       sodipodi:rx="62.629459"
       sodipodi:ry="62.629459"
       d="m -385.87826,209.89496 a 62.629459,62.629459 0 0 1 -62.62946,62.62946 62.629459,62.629459 0 0 1 -62.62946,-62.62946 62.629459,62.629459 0 0 1 62.62946,-62.62946 62.629459,62.629459 0 0 1 62.62946,62.62946 z"
       transform="translate(1753.6248,1012.1729)" />
    <path
       sodipodi:type="arc"
       style="fill:#808080;fill-opacity:1;fill-rule:evenodd;stroke:#000000;stroke-width:5;stroke-linecap:butt;stroke-linejoin:miter;stroke-miterlimit:4;stroke-opacity:1;stroke-dasharray:none"
       id="path2985-3-2-1"
       sodipodi:cx="-448.50772"
       sodipodi:cy="209.89496"
       sodipodi:rx="62.629459"
       sodipodi:ry="62.629459"
       d="m -385.87826,209.89496 a 62.629459,62.629459 0 0 1 -62.62946,62.62946 62.629459,62.629459 0 0 1 -62.62946,-62.62946 62.629459,62.629459 0 0 1 62.62946,-62.62946 62.629459,62.629459 0 0 1 62.62946,62.62946 z"
       transform="translate(101.01525,1044.4977)" />
    <path
       sodipodi:type="arc"
       style="fill:#808080;fill-opacity:1;fill-rule:evenodd;stroke:#000000;stroke-width:5;stroke-linecap:butt;stroke-linejoin:miter;stroke-miterlimit:4;stroke-opacity:1;stroke-dasharray:none"
       id="path2985-3-2-4"
       sodipodi:cx="-448.50772"
       sodipodi:cy="209.89496"
       sodipodi:rx="62.629459"
       sodipodi:ry="62.629459"
       d="m -385.87826,209.89496 a 62.629459,62.629459 0 0 1 -62.62946,62.62946 62.629459,62.629459 0 0 1 -62.62946,-62.62946 62.629459,62.629459 0 0 1 62.62946,-62.62946 62.629459,62.629459 0 0 1 62.62946,62.62946 z"
       transform="translate(1260.6704,676.80221)" />
    <path
       sodipodi:type="arc"
       style="fill:#ffffff;fill-opacity:1;fill-rule:evenodd;stroke:#000000;stroke-width:5;stroke-linecap:butt;stroke-linejoin:miter;stroke-miterlimit:4;stroke-opacity:1;stroke-dasharray:none"
       id="path2985-3-2-4-6"
       sodipodi:cx="-448.50772"
       sodipodi:cy="209.89496"
       sodipodi:rx="62.629459"
       sodipodi:ry="62.629459"
       d="m -385.87826,209.89496 a 62.629459,62.629459 0 0 1 -62.62946,62.62946 62.629459,62.629459 0 0 1 -62.62946,-62.62946 62.629459,62.629459 0 0 1 62.62946,-62.62946 62.629459,62.629459 0 0 1 62.62946,62.62946 z"
       transform="translate(1531.3913,-78.791901)" />
    <path
       sodipodi:type="arc"
       style="fill:#ffffff;fill-opacity:1;fill-rule:evenodd;stroke:#000000;stroke-width:5;stroke-linecap:butt;stroke-linejoin:miter;stroke-miterlimit:4;stroke-opacity:1;stroke-dasharray:none"
       id="path2985-3-2-4-6-5"
       sodipodi:cx="-448.50772"
       sodipodi:cy="209.89496"
       sodipodi:rx="62.629459"
       sodipodi:ry="62.629459"
       d="m -385.87826,209.89496 a 62.629459,62.629459 0 0 1 -62.62946,62.62946 62.629459,62.629459 0 0 1 -62.62946,-62.62946 62.629459,62.629459 0 0 1 62.62946,-62.62946 62.629459,62.629459 0 0 1 62.62946,62.62946 z"
       transform="translate(650.53823,644.47733)" />
    <path
       sodipodi:type="arc"
       style="fill:#ffffff;fill-opacity:1;fill-rule:evenodd;stroke:#000000;stroke-width:5;stroke-linecap:butt;stroke-linejoin:miter;stroke-miterlimit:4;stroke-opacity:1;stroke-dasharray:none"
       id="path2985-3-2-4-6-2"
       sodipodi:cx="-448.50772"
       sodipodi:cy="209.89496"
       sodipodi:rx="62.629459"
       sodipodi:ry="62.629459"
       d="m -385.87826,209.89496 a 62.629459,62.629459 0 0 1 -62.62946,62.62946 62.629459,62.629459 0 0 1 -62.62946,-62.62946 62.629459,62.629459 0 0 1 62.62946,-62.62946 62.629459,62.629459 0 0 1 62.62946,62.62946 z"
       transform="translate(852.56874,1020.2541)" />
    <path
       sodipodi:type="arc"
       style="fill:#ffffff;fill-opacity:1;fill-rule:evenodd;stroke:#000000;stroke-width:5;stroke-linecap:butt;stroke-linejoin:miter;stroke-miterlimit:4;stroke-opacity:1;stroke-dasharray:none"
       id="path2985-3-2-4-6-26"
       sodipodi:cx="-448.50772"
       sodipodi:cy="209.89496"
       sodipodi:rx="62.629459"
       sodipodi:ry="62.629459"
       d="m -385.87826,209.89496 a 62.629459,62.629459 0 0 1 -62.62946,62.62946 62.629459,62.629459 0 0 1 -62.62946,-62.62946 62.629459,62.629459 0 0 1 62.62946,-62.62946 62.629459,62.629459 0 0 1 62.62946,62.62946 z"
       transform="translate(-721.5434,487.21821)" />
    <path
       style="fill:none;stroke:#000000;stroke-width:10;stroke-linecap:butt;stroke-linejoin:miter;stroke-miterlimit:4;stroke-opacity:1;stroke-dasharray:none;marker-end:url(#Arrow2Lend)"
       d="M 1490.9852,599.81384 2343.5539,422.02699"
       id="path3952"
       inkscape:connector-curvature="0"
       sodipodi:nodetypes="cc" />
    <path
       style="fill:none;stroke:#000000;stroke-width:10;stroke-linecap:butt;stroke-linejoin:miter;stroke-miterlimit:4;stroke-opacity:1;stroke-dasharray:none;marker-end:url(#Arrow2Lend)"
       d="m 1694.7563,115.57466 351.9371,-273.95337"
       id="path3952-6"
       inkscape:connector-curvature="0"
       sodipodi:nodetypes="cc" />
    <path
       style="fill:none;stroke:#000000;stroke-width:10;stroke-linecap:butt;stroke-linejoin:miter;stroke-miterlimit:4;stroke-opacity:1;stroke-dasharray:none;marker-end:url(#Arrow2Lend)"
       d="M 1444.872,548.94541 1607.3045,235.39406"
       id="path3952-6-8"
       inkscape:connector-curvature="0"
       sodipodi:nodetypes="cc" />
    <path
       style="fill:none;stroke:#000000;stroke-width:10;stroke-linecap:butt;stroke-linejoin:miter;stroke-miterlimit:4;stroke-opacity:1;stroke-dasharray:none;marker-end:url(#Arrow2Lend)"
       d="M 1331.8435,606.50424 645.74783,505.08493"
       id="path3952-1"
       inkscape:connector-curvature="0"
       sodipodi:nodetypes="cc" />
    <path
       style="fill:none;stroke:#000000;stroke-width:10;stroke-linecap:butt;stroke-linejoin:miter;stroke-miterlimit:4;stroke-opacity:1;stroke-dasharray:none;marker-end:url(#Arrow2Lend)"
       d="m 485.72236,475.30368 -564.473311,3.2325"
       id="path3952-1-9"
       inkscape:connector-curvature="0"
       sodipodi:nodetypes="cc" />
    <path
       style="fill:none;stroke:#000000;stroke-width:10;stroke-linecap:butt;stroke-linejoin:miter;stroke-miterlimit:4;stroke-opacity:1;stroke-dasharray:none;marker-end:url(#Arrow2Lend)"
       d="M -220.77019,526.6057 -510.0282,724.70068"
       id="path3952-1-9-2"
       inkscape:connector-curvature="0"
       sodipodi:nodetypes="cc" />
    <path
       style="fill:none;stroke:#000000;stroke-width:10;stroke-linecap:butt;stroke-linejoin:miter;stroke-miterlimit:4;stroke-opacity:1;stroke-dasharray:none;marker-end:url(#Arrow2Lend)"
       d="M -240.66892,455.83895 -782.51481,295.02268"
       id="path3952-1-9-2-2"
       inkscape:connector-curvature="0"
       sodipodi:nodetypes="cc" />
    <path
       style="fill:none;stroke:#000000;stroke-width:10;stroke-linecap:butt;stroke-linejoin:miter;stroke-miterlimit:4;stroke-opacity:1;stroke-dasharray:none;marker-end:url(#Arrow2Lend)"
       d="m -865.04248,191.4668 -49.69957,-488.91382"
       id="path3952-1-9-2-2-8"
       inkscape:connector-curvature="0"
       sodipodi:nodetypes="cc" />
    <path
       style="fill:none;stroke:#000000;stroke-width:10;stroke-linecap:butt;stroke-linejoin:miter;stroke-miterlimit:4;stroke-opacity:1;stroke-dasharray:none;marker-end:url(#Arrow2Lend)"
       d="M -792.54171,220.45708 -279.38429,-87.437408"
       id="path3952-1-9-2-2-8-5"
       inkscape:connector-curvature="0"
       sodipodi:nodetypes="cc" />
    <g
       id="g5253"
       transform="translate(7.4711343,0)">
      <text
         sodipodi:linespacing="125%"
         id="text5146"
         y="1632.2761"
         x="-736.29309"
         style="font-size:112px;font-style:normal;font-weight:normal;line-height:125%;letter-spacing:0px;word-spacing:0px;fill:#000000;fill-opacity:1;stroke:none;font-family:Sans;-inkscape-font-specification:Sans"
         xml:space="preserve"><tspan
           y="1632.2761"
           x="-736.29309"
           id="tspan5148"
           sodipodi:role="line">VSN1 Nodes</tspan></text>
      <path
         transform="translate(-527.67288,1380.6272)"
         d="m -385.87826,209.89496 a 62.629459,62.629459 0 0 1 -62.62946,62.62946 62.629459,62.629459 0 0 1 -62.62946,-62.62946 62.629459,62.629459 0 0 1 62.62946,-62.62946 62.629459,62.629459 0 0 1 62.62946,62.62946 z"
         sodipodi:ry="62.629459"
         sodipodi:rx="62.629459"
         sodipodi:cy="209.89496"
         sodipodi:cx="-448.50772"
         id="path2985-3-2-4-1"
         style="fill:#808080;fill-opacity:1;fill-rule:evenodd;stroke:#000000;stroke-width:5;stroke-linecap:butt;stroke-linejoin:miter;stroke-miterlimit:4;stroke-opacity:1;stroke-dasharray:none"
         sodipodi:type="arc" />
      <path
         transform="translate(1800.7053,1380.6272)"
         d="m -385.87826,209.89496 a 62.629459,62.629459 0 0 1 -62.62946,62.62946 62.629459,62.629459 0 0 1 -62.62946,-62.62946 62.629459,62.629459 0 0 1 62.62946,-62.62946 62.629459,62.629459 0 0 1 62.62946,62.62946 z"
         sodipodi:ry="62.629459"
         sodipodi:rx="62.629459"
         sodipodi:cy="209.89496"
         sodipodi:cx="-448.50772"
         id="path2985-3-2-4-6-2-4"
         style="fill:#ffffff;fill-opacity:1;fill-rule:evenodd;stroke:#000000;stroke-width:5;stroke-linecap:butt;stroke-linejoin:miter;stroke-miterlimit:4;stroke-opacity:1;stroke-dasharray:none"
         sodipodi:type="arc" />
      <path
         transform="translate(636.5162,1380.6272)"
         d="m -385.87826,209.89496 a 62.629459,62.629459 0 0 1 -62.62946,62.62946 62.629459,62.629459 0 0 1 -62.62946,-62.62946 62.629459,62.629459 0 0 1 62.62946,-62.62946 62.629459,62.629459 0 0 1 62.62946,62.62946 z"
         sodipodi:ry="62.629459"
         sodipodi:rx="62.629459"
         sodipodi:cy="209.89496"
         sodipodi:cx="-448.50772"
         id="path2985-7-8"
         style="fill:#000000;fill-opacity:1;fill-rule:evenodd;stroke:#000000;stroke-width:5;stroke-linecap:butt;stroke-linejoin:miter;stroke-miterlimit:4;stroke-opacity:1;stroke-dasharray:none"
         sodipodi:type="arc" />
      <text
         sodipodi:linespacing="125%"
         id="text5146-0"
         y="1632.2761"
         x="427.89606"
         style="font-size:112px;font-style:normal;font-weight:normal;line-height:125%;letter-spacing:0px;word-spacing:0px;fill:#000000;fill-opacity:1;stroke:none;font-family:Sans;-inkscape-font-specification:Sans"
         xml:space="preserve"><tspan
           y="1632.2761"
           x="427.89606"
           id="tspan5148-5"
           sodipodi:role="line">VSN2 Nodes</tspan></text>
      <text
         sodipodi:linespacing="125%"
         id="text5146-5"
         y="1632.2761"
         x="1581.6123"
         style="font-size:112px;font-style:normal;font-weight:normal;line-height:125%;letter-spacing:0px;word-spacing:0px;fill:#000000;fill-opacity:1;stroke:none;font-family:Sans;-inkscape-font-specification:Sans"
         xml:space="preserve"><tspan
           y="1632.2761"
           x="1581.6123"
           id="tspan5148-8"
           sodipodi:role="line">Other Nodes</tspan></text>
    </g>
    <text
       sodipodi:linespacing="125%"
       id="text5146-0-3"
       y="794.40552"
       x="1393.6123"
       style="font-style:normal;font-weight:normal;font-size:112px;line-height:125%;font-family:Sans;-inkscape-font-specification:Sans;letter-spacing:0px;word-spacing:0px;fill:#000000;fill-opacity:1;stroke:none"
       xml:space="preserve"><tspan
         y="794.40552"
         x="1393.6123"
         id="tspan5148-5-8"
         sodipodi:role="line">(S)</tspan></text>
  </g>
</svg>
